<?xml version="1.0" standalone="no"?>
<!DOCTYPE svg PUBLIC "-//W3C//DTD SVG 20010904//EN"
 "http://www.w3.org/TR/2001/REC-SVG-20010904/DTD/svg10.dtd">
<svg version="1.0" xmlns="http://www.w3.org/2000/svg"
 width="853.000000pt" height="1280.000000pt" viewBox="0 0 853.000000 1280.000000"
 preserveAspectRatio="xMidYMid meet">
<metadata>
Created by potrace 1.15, written by Peter Selinger 2001-2017
</metadata>
<g transform="translate(0.000000,1280.000000) scale(0.100000,-0.100000)"
fill="#000000" stroke="none">
<path d="M4120 10819 c-187 -9 -280 -28 -307 -60 -6 -8 -16 -52 -22 -99 -6
-47 -15 -105 -20 -130 -16 -74 -13 -222 5 -266 19 -44 17 -179 -12 -1014 -27
-807 -33 -935 -45 -990 -20 -99 -68 -167 -227 -327 -256 -257 -368 -436 -419
-674 -16 -76 -18 -147 -18 -784 0 -1688 17 -4879 26 -5010 28 -379 86 -467
375 -563 214 -72 532 -114 842 -113 513 2 863 77 1013 218 54 51 88 126 116
258 21 103 23 495 4 995 -11 294 -11 677 -1 2223 12 1794 11 2224 -10 2607
-12 212 -20 249 -76 366 -61 128 -171 271 -349 453 -214 219 -236 266 -254
556 -25 379 -42 1637 -26 1897 6 99 3 135 -15 229 -29 151 -38 172 -91 197
-86 41 -180 47 -489 31z"/>
</g>
</svg>
